<?xml version="1.0" encoding="UTF-8"?>
<!-- Generator: visioncortex VTracer 0.6.4 -->
<svg version="1.1" xmlns="http://www.w3.org/2000/svg" width="1095" height="1280">
<path d="M0,0 L9,0 L25,3 L35,7 L40,4 L44,3 L53,3 L60,6 L64,8 L69,17 L69,29 L68,36 L67,37 L63,64 L62,65 L58,93 L57,94 L53,121 L51,129 L48,150 L47,151 L43,178 L42,179 L38,207 L37,208 L34,223 L30,228 L23,232 L11,232 L9,268 L8,277 L14,278 L20,283 L23,288 L24,292 L24,300 L21,314 L18,334 L17,335 L13,360 L20,361 L31,364 L31,366 L37,367 L48,374 L59,383 L69,396 L77,411 L83,427 L85,438 L87,455 L87,472 L86,488 L83,501 L79,516 L75,529 L71,539 L63,556 L54,573 L48,582 L46,582 L44,587 L39,594 L37,594 L35,599 L31,601 L29,605 L22,612 L20,612 L18,616 L3,627 L-14,636 L-29,641 L-36,643 L-38,648 L-42,675 L-43,676 L-46,697 L-50,708 L-57,729 L-59,729 L-60,735 L-63,740 L-63,742 L-60,744 L-60,746 L-55,748 L-54,751 L-50,753 L-49,756 L-46,757 L-44,761 L-41,764 L-35,774 L-30,787 L-29,792 L-29,949 L-4,949 L-4,951 L1,952 L9,959 L16,967 L24,974 L31,982 L39,989 L46,997 L54,1004 L61,1012 L69,1019 L76,1027 L84,1034 L84,1036 L87,1036 L89,1032 L92,1031 L92,1029 L104,1023 L112,1022 L121,1022 L131,1024 L140,1029 L146,1034 L153,1045 L155,1054 L155,1143 L159,1144 L159,1146 L164,1148 L170,1153 L180,1166 L185,1175 L190,1189 L190,1224 L187,1233 L183,1243 L176,1253 L173,1257 L171,1257 L169,1261 L159,1269 L156,1269 L155,1272 L146,1276 L136,1279 L131,1280 L102,1280 L86,1276 L77,1271 L77,1269 L73,1268 L69,1266 L64,1261 L62,1257 L59,1256 L52,1246 L47,1236 L44,1229 L42,1218 L42,1196 L45,1181 L47,1181 L48,1175 L51,1169 L55,1162 L59,1158 L60,1156 L62,1156 L64,1152 L72,1146 L74,1146 L74,1144 L78,1143 L77,1084 L73,1082 L72,1079 L68,1077 L67,1074 L63,1072 L62,1069 L58,1067 L57,1064 L53,1062 L52,1059 L48,1057 L47,1054 L43,1052 L42,1049 L38,1047 L37,1044 L33,1042 L32,1039 L28,1037 L27,1034 L23,1032 L22,1029 L18,1027 L17,1024 L13,1022 L12,1019 L8,1017 L7,1014 L3,1012 L2,1009 L-2,1007 L-3,1004 L-7,1002 L-8,999 L-12,997 L-13,994 L-17,992 L-18,989 L-29,988 L-29,998 L-32,1010 L-38,1022 L-46,1033 L-51,1039 L-57,1044 L-59,1044 L-60,1047 L-66,1049 L-66,1051 L-72,1054 L-75,1054 L-75,1056 L-89,1060 L-90,1061 L-99,1062 L-110,1062 L-106,1073 L-103,1092 L-102,1094 L-101,1106 L-101,1124 L-102,1136 L-104,1145 L-107,1161 L-110,1169 L-113,1177 L-117,1187 L-122,1197 L-124,1197 L-126,1203 L-133,1213 L-137,1219 L-139,1219 L-141,1224 L-159,1242 L-164,1244 L-165,1247 L-171,1251 L-181,1258 L-186,1259 L-186,1261 L-201,1268 L-214,1273 L-227,1277 L-247,1280 L-290,1280 L-310,1277 L-326,1272 L-338,1267 L-341,1266 L-341,1264 L-350,1261 L-355,1258 L-358,1256 L-358,1254 L-362,1253 L-366,1251 L-366,1249 L-371,1247 L-378,1241 L-378,1239 L-382,1237 L-388,1232 L-393,1226 L-393,1224 L-397,1222 L-398,1218 L-402,1216 L-403,1213 L-406,1210 L-408,1207 L-408,1204 L-410,1204 L-413,1198 L-413,1196 L-415,1196 L-422,1181 L-423,1174 L-425,1174 L-429,1159 L-431,1154 L-434,1130 L-435,1129 L-435,1101 L-433,1101 L-433,1089 L-430,1072 L-428,1072 L-427,1063 L-474,1062 L-483,1061 L-483,1059 L-492,1058 L-498,1056 L-498,1054 L-506,1053 L-514,1060 L-521,1068 L-522,1104 L-517,1106 L-505,1113 L-504,1116 L-499,1118 L-489,1128 L-489,1131 L-485,1133 L-482,1138 L-479,1143 L-479,1146 L-477,1146 L-471,1161 L-468,1182 L-467,1184 L-467,1193 L-468,1195 L-470,1211 L-472,1219 L-474,1219 L-475,1226 L-482,1239 L-484,1239 L-485,1243 L-494,1254 L-504,1263 L-511,1268 L-516,1269 L-516,1271 L-530,1277 L-545,1280 L-577,1280 L-596,1276 L-596,1274 L-604,1272 L-615,1265 L-621,1261 L-624,1258 L-631,1252 L-633,1248 L-637,1244 L-643,1234 L-643,1232 L-645,1232 L-649,1221 L-652,1212 L-654,1197 L-655,1196 L-655,1181 L-654,1180 L-651,1161 L-650,1157 L-648,1157 L-647,1151 L-640,1137 L-638,1137 L-637,1133 L-630,1124 L-622,1117 L-616,1112 L-613,1111 L-610,1108 L-606,1106 L-603,1106 L-603,1104 L-600,1104 L-600,1054 L-598,1047 L-593,1037 L-588,1032 L-586,1029 L-580,1026 L-577,1026 L-577,1024 L-566,1022 L-557,1022 L-546,1024 L-540,1027 L-537,1026 L-535,1022 L-538,1016 L-538,1013 L-540,1013 L-543,1002 L-544,995 L-545,994 L-545,868 L-544,867 L-542,853 L-540,846 L-538,846 L-537,839 L-535,836 L-533,836 L-532,832 L-530,828 L-522,821 L-516,816 L-513,816 L-513,814 L-507,811 L-503,811 L-503,809 L-493,806 L-488,806 L-488,804 L-482,803 L-471,803 L-471,753 L-488,751 L-489,750 L-517,746 L-517,744 L-525,744 L-545,741 L-546,740 L-574,736 L-575,735 L-582,734 L-599,734 L-599,736 L-605,739 L-609,744 L-615,757 L-620,771 L-622,778 L-624,778 L-625,785 L-632,806 L-635,814 L-640,828 L-645,842 L-650,856 L-655,870 L-660,884 L-667,903 L-670,910 L-677,930 L-681,941 L-685,952 L-690,965 L-697,985 L-701,996 L-705,1007 L-710,1020 L-717,1040 L-720,1048 L-725,1062 L-731,1077 L-736,1082 L-743,1084 L-753,1084 L-763,1081 L-771,1078 L-785,1073 L-798,1068 L-806,1065 L-818,1061 L-826,1058 L-832,1056 L-832,1054 L-840,1053 L-846,1051 L-846,1049 L-853,1048 L-860,1046 L-860,1044 L-871,1042 L-873,1041 L-873,1039 L-881,1038 L-887,1036 L-887,1034 L-895,1033 L-898,1031 L-898,1029 L-902,1027 L-903,1023 L-905,1023 L-905,1006 L-903,1006 L-902,1002 L-897,997 L-889,994 L-883,994 L-874,997 L-860,1002 L-854,1004 L-854,1006 L-847,1007 L-840,1009 L-840,1011 L-833,1012 L-819,1017 L-805,1022 L-799,1024 L-799,1026 L-792,1027 L-785,1029 L-785,1031 L-778,1032 L-764,1037 L-761,1038 L-760,1036 L-758,1036 L-757,1028 L-755,1022 L-753,1022 L-752,1015 L-750,1008 L-748,1008 L-747,1001 L-742,987 L-740,981 L-738,981 L-737,973 L-735,967 L-733,967 L-732,960 L-730,953 L-728,953 L-727,946 L-722,933 L-720,926 L-718,926 L-717,919 L-715,912 L-713,912 L-712,905 L-710,898 L-708,898 L-707,891 L-702,878 L-700,871 L-698,871 L-697,863 L-692,849 L-690,842 L-688,842 L-687,835 L-685,828 L-683,828 L-682,821 L-677,807 L-672,793 L-667,779 L-665,773 L-663,773 L-662,766 L-657,753 L-655,746 L-653,746 L-652,739 L-645,721 L-640,711 L-638,711 L-637,707 L-635,703 L-628,697 L-623,696 L-623,694 L-617,692 L-608,692 L-607,679 L-605,672 L-603,672 L-602,667 L-596,659 L-591,656 L-588,656 L-588,654 L-580,651 L-573,651 L-573,649 L-575,649 L-578,639 L-583,631 L-583,629 L-585,629 L-588,624 L-596,617 L-598,616 L-598,614 L-603,612 L-605,611 L-605,609 L-611,607 L-612,604 L-616,603 L-627,596 L-638,588 L-646,581 L-653,573 L-655,572 L-658,563 L-656,553 L-655,551 L-653,551 L-651,547 L-636,547 L-618,554 L-609,558 L-599,563 L-607,547 L-610,538 L-623,534 L-640,526 L-645,522 L-653,516 L-653,514 L-657,512 L-658,509 L-661,508 L-669,497 L-677,481 L-683,463 L-687,436 L-689,400 L-689,388 L-692,363 L-693,353 L-696,340 L-702,317 L-710,297 L-717,286 L-726,279 L-726,277 L-729,276 L-729,274 L-733,272 L-740,262 L-744,253 L-743,246 L-741,246 L-740,243 L-733,240 L-722,239 L-702,242 L-683,246 L-673,250 L-667,254 L-660,263 L-653,276 L-648,290 L-642,312 L-637,333 L-630,353 L-626,362 L-620,372 L-612,382 L-603,388 L-595,391 L-593,386 L-588,374 L-578,355 L-572,344 L-570,344 L-568,338 L-558,323 L-556,323 L-554,318 L-547,309 L-540,300 L-538,300 L-536,295 L-532,291 L-530,291 L-528,287 L-519,278 L-511,271 L-500,261 L-502,256 L-503,245 L-498,236 L-488,229 L-472,223 L-459,220 L-441,218 L-428,217 L-422,216 L-412,213 L-396,208 L-379,204 L-358,201 L-337,200 L-336,199 L-340,196 L-340,194 L-343,193 L-349,183 L-350,180 L-350,168 L-347,161 L-345,161 L-343,157 L-333,150 L-322,146 L-313,144 L-294,143 L-268,147 L-254,151 L-241,157 L-241,159 L-237,160 L-233,162 L-233,164 L-228,166 L-225,169 L-225,171 L-222,172 L-216,182 L-215,186 L-215,193 L-218,202 L-222,208 L-231,214 L-240,217 L-231,221 L-219,226 L-219,228 L-214,229 L-198,238 L-193,241 L-193,243 L-188,245 L-174,255 L-174,257 L-169,259 L-160,266 L-150,270 L-131,280 L-120,287 L-109,296 L-107,300 L-105,300 L-104,304 L-102,304 L-99,313 L-100,324 L-107,332 L-105,336 L-97,351 L-88,371 L-85,379 L-85,382 L-83,382 L-82,368 L-80,354 L-78,347 L-75,326 L-74,325 L-70,298 L-68,298 L-67,291 L-65,287 L-63,287 L-61,282 L-58,281 L-57,278 L-51,276 L-51,274 L-41,271 L-32,271 L-31,246 L-30,231 L-28,231 L-28,219 L-36,218 L-42,214 L-47,210 L-51,206 L-56,196 L-58,186 L-58,168 L-55,147 L-54,146 L-50,118 L-48,118 L-47,104 L-45,90 L-43,83 L-40,62 L-39,61 L-35,34 L-30,22 L-25,14 L-23,14 L-21,10 L-10,2 Z M4,412 L1,420 L-3,448 L-4,449 L-8,476 L-9,477 L-13,505 L-14,506 L-18,533 L-19,534 L-23,561 L-25,569 L-27,585 L-22,583 L-8,573 L0,566 L7,558 L14,549 L19,541 L19,539 L21,539 L30,520 L30,517 L32,517 L37,502 L40,493 L42,482 L42,455 L39,441 L33,430 L28,424 L26,424 L25,421 L13,414 Z M-134,659 L-143,664 L-159,672 L-168,676 L-185,681 L-188,683 L-182,692 L-182,702 L-186,709 L-192,713 L-195,715 L-193,716 L-183,716 L-183,714 L-175,714 L-165,711 L-156,706 L-150,699 L-147,696 L-141,686 L-136,672 L-134,663 L-133,659 Z " fill="#DE2A44" transform="translate(905,0)"/>
<path d="M0,0 L15,1 L36,5 L46,8 L59,14 L59,16 L63,17 L67,19 L67,21 L72,23 L75,26 L75,28 L78,29 L84,39 L85,43 L85,50 L82,59 L78,65 L69,71 L60,74 L69,78 L81,83 L81,85 L86,86 L102,95 L107,98 L107,100 L112,102 L126,112 L126,114 L131,116 L140,123 L150,127 L169,137 L180,144 L191,153 L193,157 L195,157 L196,161 L198,161 L201,170 L200,181 L193,189 L195,193 L203,208 L212,228 L216,240 L215,257 L210,285 L208,285 L208,293 L205,312 L204,313 L199,351 L196,363 L193,377 L191,395 L186,419 L184,437 L183,439 L174,438 L161,435 L132,431 L132,429 L120,428 L106,426 L100,424 L68,420 L56,417 L38,415 L32,413 L12,410 L12,408 L3,408 L-10,406 L-10,404 L-18,404 L-36,401 L-44,399 L-57,397 L-63,395 L-86,392 L-95,392 L-105,394 L-105,396 L-111,400 L-115,406 L-117,414 L-119,421 L-119,437 L-117,441 L-105,443 L-105,445 L-90,446 L-71,450 L-47,453 L-43,454 L-43,456 L-35,456 L-15,459 L-14,460 L3,462 L7,464 L38,468 L42,469 L42,471 L51,471 L71,474 L84,477 L96,479 L106,481 L127,484 L127,486 L144,487 L164,490 L172,493 L170,512 L166,517 L157,522 L141,530 L132,534 L115,539 L113,540 L119,549 L119,559 L115,566 L108,571 L105,572 L92,572 L76,570 L69,568 L48,565 L48,563 L34,562 L13,558 L-8,555 L-8,553 L-20,552 L-29,550 L-58,546 L-64,544 L-86,541 L-95,539 L-108,537 L-114,535 L-150,530 L-172,526 L-172,524 L-186,523 L-202,520 L-203,518 L-196,515 L-192,510 L-190,510 L-189,466 L-192,461 L-197,457 L-200,455 L-200,432 L-203,423 L-205,420 L-204,412 L-204,395 L-205,389 L-209,387 L-214,388 L-217,391 L-221,405 L-224,414 L-230,415 L-232,419 L-237,428 L-239,440 L-242,447 L-247,446 L-253,443 L-259,441 L-259,439 L-271,436 L-279,432 L-286,428 L-294,425 L-301,417 L-308,402 L-310,395 L-323,391 L-340,383 L-345,379 L-353,373 L-353,371 L-357,369 L-358,366 L-361,365 L-369,354 L-377,338 L-383,320 L-387,293 L-389,257 L-389,245 L-392,220 L-393,210 L-396,197 L-402,174 L-410,154 L-417,143 L-426,136 L-426,134 L-429,133 L-429,131 L-433,129 L-440,119 L-444,110 L-443,103 L-441,103 L-440,100 L-433,97 L-422,96 L-402,99 L-383,103 L-373,107 L-367,111 L-360,120 L-353,133 L-348,147 L-342,169 L-337,190 L-330,210 L-326,219 L-320,229 L-312,239 L-303,245 L-295,248 L-293,243 L-288,231 L-278,212 L-272,201 L-270,201 L-268,195 L-258,180 L-256,180 L-254,175 L-247,166 L-240,157 L-238,157 L-236,152 L-232,148 L-230,148 L-228,144 L-219,135 L-211,128 L-200,118 L-202,113 L-203,102 L-198,93 L-188,86 L-172,80 L-159,77 L-141,75 L-128,74 L-122,73 L-112,70 L-96,65 L-79,61 L-58,58 L-37,57 L-36,56 L-40,53 L-40,51 L-43,50 L-49,40 L-50,37 L-50,25 L-47,18 L-45,18 L-43,14 L-33,7 L-22,3 L-13,1 Z " fill="#3D8AC4" transform="translate(605,143)"/>
<path d="M0,0 L6,1 L7,4 L12,6 L13,9 L17,11 L18,14 L21,15 L23,19 L26,22 L32,32 L37,45 L38,50 L38,208 L-23,209 L-30,212 L-35,217 L-36,220 L-36,233 L-33,238 L-32,241 L-23,244 L37,245 L38,246 L38,256 L35,268 L29,280 L21,291 L16,297 L10,302 L8,302 L7,305 L1,307 L1,309 L-5,312 L-8,312 L-8,314 L-22,318 L-23,319 L-32,320 L-43,320 L-39,331 L-36,350 L-35,352 L-34,364 L-34,382 L-35,394 L-37,403 L-40,419 L-43,427 L-46,435 L-50,445 L-55,455 L-57,455 L-59,461 L-66,471 L-70,477 L-72,477 L-74,482 L-92,500 L-97,502 L-98,505 L-104,509 L-114,516 L-119,517 L-119,519 L-134,526 L-147,531 L-160,535 L-180,538 L-223,538 L-243,535 L-259,530 L-271,525 L-274,524 L-274,522 L-283,519 L-288,516 L-291,514 L-291,512 L-295,511 L-299,509 L-299,507 L-304,505 L-311,499 L-311,497 L-315,495 L-321,490 L-326,484 L-326,482 L-330,480 L-331,476 L-335,474 L-336,471 L-339,468 L-341,465 L-341,462 L-343,462 L-346,456 L-346,454 L-348,454 L-355,439 L-356,432 L-358,432 L-362,417 L-364,412 L-367,388 L-368,387 L-368,359 L-366,359 L-366,347 L-363,330 L-361,330 L-360,321 L-407,320 L-416,319 L-416,317 L-425,316 L-431,314 L-431,312 L-436,311 L-438,310 L-438,305 L-370,237 L-369,234 L-369,223 L-372,218 L-375,214 L-379,213 L-379,211 L-391,211 L-401,217 L-407,224 L-415,231 L-422,239 L-430,246 L-437,254 L-445,261 L-452,269 L-459,275 L-464,280 L-467,281 L-470,276 L-471,271 L-473,271 L-476,260 L-477,253 L-478,252 L-478,126 L-477,125 L-475,111 L-473,104 L-471,104 L-470,97 L-468,94 L-466,94 L-465,90 L-463,86 L-455,79 L-449,74 L-446,74 L-446,72 L-440,69 L-436,69 L-436,67 L-426,64 L-421,64 L-421,62 L-415,61 L-404,61 L-404,11 L-387,12 L-370,16 L-355,18 L-355,20 L-333,21 L-332,22 L-310,25 L-302,27 L-281,30 L-281,32 L-274,32 L-241,38 L-225,41 L-201,45 L-192,47 L-170,50 L-170,52 L-162,52 L-143,56 L-121,58 L-93,58 L-80,57 L-57,51 L-54,51 L-54,49 L-44,45 L-39,43 L-39,41 L-33,38 L-31,38 L-31,36 L-27,33 L-25,33 L-25,31 L-17,24 L-7,11 L-5,11 L-5,7 L-3,7 L-1,1 Z " fill="#282E35" transform="translate(838,742)"/>
<path d="M0,0 L9,0 L25,3 L35,7 L36,9 L34,14 L31,22 L29,27 L26,50 L22,68 L20,85 L19,91 L17,91 L16,105 L13,129 L8,147 L5,168 L3,175 L1,193 L-2,207 L-2,218 L3,226 L7,229 L10,230 L11,232 L9,268 L8,277 L-5,280 L-11,284 L-14,292 L-18,311 L-20,324 L-22,335 L-25,355 L-28,378 L-30,378 L-32,397 L-36,416 L-38,425 L-41,449 L-43,453 L-45,469 L-47,469 L-49,491 L-52,507 L-54,516 L-55,525 L-57,531 L-60,553 L-62,553 L-63,569 L-66,583 L-70,609 L-74,634 L-77,651 L-79,657 L-83,682 L-87,697 L-91,707 L-96,717 L-99,724 L-106,734 L-115,745 L-125,752 L-127,752 L-127,754 L-135,758 L-147,763 L-161,765 L-187,765 L-201,763 L-201,761 L-216,760 L-224,758 L-246,755 L-247,754 L-279,749 L-300,745 L-310,743 L-336,739 L-336,738 L-364,734 L-388,730 L-395,729 L-395,727 L-409,726 L-430,723 L-430,721 L-444,720 L-456,717 L-477,714 L-479,713 L-515,708 L-515,706 L-531,705 L-537,704 L-537,702 L-558,700 L-571,698 L-571,696 L-584,695 L-608,693 L-607,679 L-605,672 L-603,672 L-602,667 L-596,659 L-591,656 L-588,656 L-588,654 L-580,651 L-573,651 L-573,649 L-575,649 L-578,639 L-583,631 L-583,629 L-585,629 L-588,624 L-596,617 L-598,616 L-598,614 L-603,612 L-605,611 L-605,609 L-611,607 L-612,604 L-616,603 L-627,596 L-638,588 L-646,581 L-653,573 L-655,572 L-658,563 L-656,553 L-655,551 L-653,551 L-651,547 L-636,547 L-618,554 L-609,558 L-601,562 L-596,565 L-593,568 L-585,571 L-576,575 L-568,579 L-559,582 L-559,584 L-550,586 L-546,589 L-542,590 L-539,577 L-537,569 L-532,561 L-528,557 L-524,557 L-523,549 L-521,546 L-517,532 L-513,529 L-508,530 L-504,534 L-503,538 L-503,555 L-504,563 L-500,571 L-499,575 L-499,598 L-493,602 L-489,606 L-488,609 L-489,647 L-490,653 L-495,658 L-499,661 L-502,662 L-486,665 L-472,667 L-472,669 L-459,670 L-450,672 L-438,674 L-414,677 L-408,679 L-388,682 L-386,683 L-364,686 L-352,689 L-322,693 L-313,695 L-308,696 L-308,698 L-295,699 L-271,703 L-252,706 L-252,708 L-242,708 L-226,711 L-216,713 L-183,716 L-183,714 L-167,711 L-158,706 L-156,706 L-155,703 L-150,698 L-148,698 L-146,692 L-142,686 L-137,672 L-135,663 L-131,655 L-129,636 L-143,633 L-173,629 L-173,627 L-194,625 L-208,622 L-226,619 L-240,616 L-258,614 L-258,612 L-280,610 L-293,608 L-297,606 L-314,604 L-319,602 L-343,599 L-343,597 L-363,595 L-379,592 L-405,588 L-405,586 L-412,586 L-417,584 L-420,580 L-420,564 L-417,555 L-415,547 L-409,540 L-405,539 L-405,537 L-395,534 L-386,534 L-358,538 L-353,540 L-339,542 L-324,545 L-310,547 L-310,549 L-297,550 L-288,551 L-288,553 L-275,554 L-265,556 L-253,558 L-240,560 L-232,562 L-200,566 L-189,569 L-168,572 L-168,574 L-159,574 L-133,578 L-117,582 L-115,562 L-110,538 L-107,513 L-105,506 L-102,494 L-97,456 L-95,449 L-92,428 L-90,428 L-90,421 L-86,400 L-85,383 L-83,382 L-82,368 L-80,354 L-78,347 L-75,326 L-74,325 L-70,298 L-68,298 L-67,291 L-65,287 L-63,287 L-61,282 L-58,281 L-57,278 L-51,276 L-51,274 L-41,271 L-32,271 L-31,246 L-30,231 L-28,231 L-28,219 L-36,218 L-42,214 L-47,210 L-51,206 L-56,196 L-58,186 L-58,168 L-55,147 L-54,146 L-50,118 L-48,118 L-47,104 L-45,90 L-43,83 L-40,62 L-39,61 L-35,34 L-30,22 L-25,14 L-23,14 L-21,10 L-10,2 Z " fill="#292F35" transform="translate(905,0)"/>
<path d="M0,0 L26,0 L41,2 L41,4 L48,4 L63,8 L72,11 L72,13 L81,15 L97,23 L97,25 L102,27 L110,32 L110,34 L114,36 L121,41 L126,46 L131,51 L135,53 L139,60 L146,68 L149,74 L149,76 L151,76 L152,80 L154,80 L157,89 L159,89 L164,103 L166,107 L166,110 L170,112 L174,123 L177,142 L178,144 L179,156 L179,174 L178,186 L176,195 L173,211 L170,219 L167,227 L163,237 L158,247 L156,247 L154,253 L147,263 L143,269 L141,269 L139,274 L121,292 L116,294 L115,297 L109,301 L99,308 L94,309 L94,311 L79,318 L66,323 L53,327 L33,330 L-10,330 L-30,327 L-46,322 L-58,317 L-61,316 L-61,314 L-70,311 L-75,308 L-78,306 L-78,304 L-82,303 L-86,301 L-86,299 L-91,297 L-98,291 L-98,289 L-102,287 L-108,282 L-113,276 L-113,274 L-117,272 L-118,268 L-122,266 L-123,263 L-126,260 L-128,257 L-128,254 L-130,254 L-133,248 L-133,246 L-135,246 L-142,231 L-143,224 L-145,224 L-149,209 L-151,204 L-154,180 L-155,179 L-155,151 L-153,151 L-153,139 L-150,122 L-148,122 L-147,113 L-146,111 L-144,111 L-143,105 L-137,93 L-131,81 L-124,70 L-111,54 L-97,40 L-84,30 L-73,23 L-68,20 L-61,18 L-61,16 L-47,10 L-40,8 L-30,4 L-20,2 Z " fill="#65757E" transform="translate(625,950)"/>
<path d="M0,0 L8,1 L13,5 L17,12 L18,21 L14,43 L10,65 L7,83 L14,84 L25,87 L25,89 L31,90 L42,97 L53,106 L63,119 L71,134 L77,150 L79,161 L81,178 L81,195 L80,211 L77,224 L73,239 L69,252 L65,262 L57,279 L48,296 L42,305 L40,305 L38,310 L33,317 L31,317 L29,322 L25,324 L23,328 L16,335 L14,335 L12,339 L-3,350 L-20,359 L-35,364 L-42,366 L-44,370 L-48,397 L-49,398 L-52,419 L-63,451 L-70,465 L-73,466 L-76,472 L-78,472 L-78,476 L-80,476 L-82,480 L-91,491 L-96,496 L-98,496 L-98,498 L-102,501 L-104,501 L-104,503 L-110,506 L-112,506 L-112,508 L-124,514 L-127,514 L-127,516 L-153,523 L-166,524 L-194,524 L-216,522 L-235,518 L-243,517 L-243,515 L-255,514 L-272,512 L-279,510 L-298,507 L-314,504 L-354,497 L-354,495 L-362,495 L-381,492 L-389,490 L-405,488 L-406,487 L-422,486 L-428,485 L-428,483 L-443,482 L-460,478 L-488,475 L-502,472 L-522,469 L-523,468 L-551,464 L-558,462 L-579,459 L-580,458 L-588,457 L-601,457 L-606,459 L-612,463 L-617,471 L-622,483 L-626,494 L-628,501 L-630,501 L-632,511 L-636,522 L-643,542 L-646,550 L-653,570 L-661,592 L-668,612 L-671,620 L-678,639 L-681,647 L-686,661 L-693,680 L-696,688 L-705,712 L-712,732 L-716,743 L-721,757 L-728,776 L-731,784 L-737,800 L-742,805 L-749,807 L-759,807 L-769,804 L-777,801 L-791,796 L-804,791 L-812,788 L-824,784 L-832,781 L-838,779 L-838,777 L-846,776 L-852,774 L-852,772 L-859,771 L-866,769 L-866,767 L-877,765 L-879,764 L-879,762 L-887,761 L-893,759 L-893,757 L-901,756 L-904,754 L-904,752 L-908,750 L-909,746 L-911,746 L-911,729 L-909,729 L-908,725 L-903,720 L-895,717 L-889,717 L-880,720 L-866,725 L-860,727 L-860,729 L-853,730 L-846,732 L-846,734 L-839,735 L-825,740 L-811,745 L-805,747 L-805,749 L-798,750 L-791,752 L-791,754 L-784,755 L-770,760 L-767,761 L-766,759 L-764,759 L-763,751 L-758,739 L-751,718 L-747,708 L-744,700 L-738,684 L-731,663 L-727,653 L-723,642 L-718,629 L-711,608 L-708,601 L-706,594 L-704,594 L-703,586 L-698,573 L-691,552 L-688,544 L-683,530 L-681,524 L-679,524 L-678,516 L-676,510 L-674,510 L-673,503 L-668,489 L-661,470 L-658,462 L-656,456 L-654,456 L-653,450 L-651,444 L-649,444 L-648,438 L-646,434 L-644,434 L-643,430 L-636,422 L-632,419 L-629,419 L-629,417 L-623,415 L-600,416 L-577,419 L-577,421 L-564,422 L-543,425 L-543,427 L-526,428 L-521,429 L-521,431 L-507,432 L-485,435 L-476,437 L-459,440 L-443,443 L-436,444 L-436,446 L-427,446 L-401,450 L-401,452 L-386,453 L-358,458 L-341,460 L-337,462 L-308,466 L-295,469 L-280,472 L-253,476 L-252,477 L-230,480 L-222,482 L-207,484 L-207,486 L-193,487 L-167,487 L-150,484 L-141,480 L-135,477 L-133,477 L-133,475 L-124,469 L-119,464 L-111,455 L-104,444 L-99,431 L-96,425 L-93,418 L-89,401 L-85,375 L-83,369 L-79,342 L-75,320 L-73,306 L-70,292 L-68,276 L-66,276 L-66,268 L-63,249 L-62,248 L-60,233 L-58,227 L-54,196 L-53,192 L-51,192 L-51,183 L-50,176 L-48,172 L-44,141 L-41,129 L-38,112 L-36,101 L-34,101 L-34,93 L-28,50 L-26,43 L-24,30 L-20,11 L-17,6 L-11,2 Z M-2,135 L-5,143 L-9,170 L-11,178 L-14,197 L-17,214 L-19,228 L-21,235 L-24,255 L-26,264 L-33,305 L-33,308 L-28,306 L-14,296 L-6,289 L1,281 L8,272 L13,264 L13,262 L15,262 L24,243 L24,240 L26,240 L31,225 L34,216 L36,205 L36,178 L33,164 L27,153 L22,147 L20,147 L19,144 L7,137 Z " fill="#DE2B44" transform="translate(911,277)"/>
<path d="M0,0 L15,1 L36,5 L46,8 L59,14 L59,16 L63,17 L67,19 L67,21 L72,23 L75,26 L75,28 L78,29 L84,39 L85,43 L85,50 L82,59 L78,65 L69,71 L60,74 L69,78 L81,83 L81,85 L86,86 L102,95 L107,98 L107,100 L112,102 L126,112 L126,114 L131,116 L140,123 L150,127 L169,137 L180,144 L191,153 L193,157 L195,157 L196,161 L198,161 L201,170 L200,181 L193,189 L187,191 L181,194 L164,199 L135,203 L126,204 L80,204 L40,201 L17,197 L5,196 L-7,193 L-18,191 L-30,190 L-39,187 L-62,182 L-77,178 L-81,176 L-97,172 L-113,167 L-130,160 L-141,156 L-141,154 L-146,153 L-160,147 L-165,144 L-165,142 L-170,141 L-176,138 L-176,136 L-181,134 L-188,129 L-188,127 L-192,125 L-196,120 L-196,118 L-200,117 L-202,113 L-203,102 L-198,93 L-188,86 L-172,80 L-159,77 L-141,75 L-128,74 L-122,73 L-112,70 L-96,65 L-79,61 L-58,58 L-37,57 L-36,56 L-40,53 L-40,51 L-43,50 L-49,40 L-50,37 L-50,25 L-47,18 L-45,18 L-43,14 L-33,7 L-22,3 L-13,1 Z " fill="#3C89C3" transform="translate(605,143)"/>
<path d="M0,0 L31,0 L49,4 L49,6 L55,5 L67,12 L73,16 L73,18 L78,20 L88,30 L88,33 L92,35 L95,40 L98,45 L98,48 L100,48 L106,63 L109,84 L110,86 L110,95 L109,97 L107,113 L105,121 L103,121 L102,128 L95,141 L93,141 L92,145 L83,156 L73,165 L66,170 L61,171 L61,173 L47,179 L32,182 L0,182 L-19,178 L-19,176 L-27,174 L-38,167 L-44,163 L-47,160 L-54,154 L-56,150 L-60,146 L-66,136 L-66,134 L-68,134 L-72,123 L-75,114 L-77,99 L-78,98 L-78,83 L-77,82 L-74,63 L-73,59 L-71,59 L-70,53 L-63,39 L-61,39 L-60,35 L-53,26 L-45,19 L-39,14 L-36,13 L-33,10 L-29,8 L-26,8 L-26,6 L-14,4 L-11,2 Z " fill="#67767F" transform="translate(328,1098)"/>
<path d="M0,0 L22,0 L39,3 L45,6 L53,9 L62,15 L73,24 L84,35 L93,49 L96,58 L96,61 L98,61 L100,68 L101,76 L101,106 L99,118 L97,118 L96,124 L95,127 L93,127 L92,132 L88,140 L80,151 L75,157 L61,168 L51,173 L49,173 L48,176 L36,178 L36,180 L25,182 L-4,182 L-16,180 L-16,178 L-26,176 L-40,168 L-51,160 L-58,152 L-66,142 L-68,137 L-71,135 L-74,127 L-79,115 L-81,102 L-81,80 L-75,56 L-71,50 L-68,42 L-60,32 L-55,27 L-50,22 L-43,16 L-35,11 L-30,10 L-30,8 L-18,4 L-10,1 Z " fill="#CBD5DA" transform="translate(626,1024)"/>
<path d="M0,0 L20,0 L32,2 L35,3 L35,5 L41,6 L44,8 L53,10 L53,12 L58,14 L64,19 L74,32 L79,41 L84,55 L84,90 L81,99 L77,109 L70,119 L67,123 L65,123 L63,127 L53,135 L50,135 L49,138 L40,142 L30,145 L25,146 L-4,146 L-20,142 L-29,137 L-29,135 L-33,134 L-37,132 L-42,127 L-44,123 L-47,122 L-54,112 L-59,102 L-62,95 L-64,84 L-64,62 L-61,47 L-59,47 L-58,41 L-55,35 L-51,28 L-47,24 L-46,22 L-44,22 L-42,18 L-34,12 L-32,12 L-32,10 L-23,8 L-19,5 L-6,1 Z " fill="#65747D" transform="translate(1011,1134)"/>
<path d="M0,0 L412,0 L423,7 L426,15 L426,23 L422,31 L417,35 L412,37 L0,37 L-7,34 L-13,25 L-13,14 L-10,7 L-3,1 Z " fill="#DB2B44" transform="translate(412,840)"/>
<path d="M0,0 L0,3 L-8,6 L-18,10 L-22,12 L-25,12 L-25,14 L-30,15 L-30,17 L-40,22 L-43,22 L-43,24 L-47,26 L-48,28 L-44,30 L-39,34 L-29,40 L-20,44 L-7,50 L-3,51 L-3,53 L3,54 L11,56 L11,58 L18,59 L47,68 L60,71 L77,75 L97,80 L124,85 L151,89 L169,91 L185,93 L199,94 L201,95 L267,95 L288,91 L292,88 L289,83 L281,73 L276,68 L272,64 L272,62 L268,60 L258,50 L259,48 L268,52 L282,59 L295,67 L302,71 L313,80 L315,84 L317,84 L318,88 L320,88 L323,97 L322,108 L315,116 L309,118 L303,121 L286,126 L257,130 L248,131 L202,131 L162,128 L139,124 L127,123 L115,120 L104,118 L92,117 L83,114 L60,109 L45,105 L41,103 L25,99 L9,94 L-8,87 L-19,83 L-19,81 L-24,80 L-38,74 L-43,71 L-43,69 L-48,68 L-54,65 L-54,63 L-59,61 L-66,56 L-66,54 L-70,52 L-74,47 L-74,45 L-78,44 L-80,40 L-81,29 L-76,20 L-66,13 L-50,7 L-37,4 L-19,2 L-6,1 Z " fill="#216699" transform="translate(483,216)"/>
<path d="M0,0 L2,1 L4,6 L21,13 L30,16 L46,21 L53,24 L62,26 L82,31 L101,36 L144,44 L165,47 L177,48 L179,49 L197,50 L262,50 L290,47 L306,43 L317,41 L326,38 L345,31 L354,26 L359,26 L360,31 L358,46 L354,51 L345,56 L329,64 L320,68 L303,73 L301,74 L307,83 L307,93 L303,100 L296,105 L293,106 L280,106 L264,104 L257,102 L236,99 L236,97 L222,96 L201,92 L180,89 L180,87 L168,86 L159,84 L130,80 L124,78 L102,75 L93,73 L80,71 L74,69 L38,64 L16,60 L16,58 L2,57 L-14,54 L-15,52 L-8,49 L-4,44 L-2,44 L-1,11 Z " fill="#206599" transform="translate(417,609)"/>
<path d="M0,0 L9,1 L20,4 L20,6 L26,7 L37,14 L48,23 L58,36 L66,51 L72,67 L74,78 L76,95 L76,112 L75,128 L72,141 L68,156 L64,169 L60,179 L52,196 L43,213 L37,222 L35,222 L33,227 L28,234 L26,234 L24,239 L20,241 L18,245 L11,252 L9,252 L7,256 L-8,267 L-25,276 L-40,281 L-48,283 L-50,282 L-49,267 L-45,251 L-43,233 L-39,225 L-28,219 L-18,211 L-16,211 L-14,207 L-8,202 L0,192 L7,181 L8,179 L10,179 L11,174 L18,160 L19,157 L21,157 L22,151 L27,135 L30,122 L30,95 L27,81 L21,70 L17,65 L8,58 L2,55 L-7,52 L-9,51 L-7,35 L-5,29 L-1,1 Z " fill="#3B87C3" transform="translate(916,360)"/>
<path d="M0,0 L16,0 L25,2 L37,8 L45,14 L50,18 L51,21 L54,23 L55,28 L57,28 L61,40 L62,47 L62,64 L59,75 L52,87 L43,97 L29,106 L25,106 L25,108 L12,109 L-2,109 L-10,106 L-18,104 L-28,97 L-37,87 L-41,81 L-45,68 L-47,63 L-47,44 L-43,32 L-38,22 L-27,11 L-20,6 L-7,1 Z " fill="#C8D2DC" transform="translate(336,1134)"/>
<path d="M0,0 L15,1 L36,5 L46,8 L59,14 L59,16 L63,17 L67,19 L67,21 L72,23 L75,26 L75,28 L78,29 L84,39 L85,43 L85,50 L82,59 L78,65 L69,71 L60,74 L49,76 L17,76 L-1,72 L-17,67 L-30,60 L-35,58 L-40,53 L-40,51 L-43,50 L-49,40 L-50,37 L-50,25 L-47,18 L-45,18 L-43,14 L-33,7 L-22,3 L-13,1 Z " fill="#236797" transform="translate(605,143)"/>
<path d="M0,0 L6,0 L15,3 L29,8 L35,10 L35,12 L42,13 L49,15 L49,17 L56,18 L70,23 L84,28 L90,30 L90,32 L97,33 L104,35 L104,37 L111,38 L125,43 L130,46 L130,48 L146,52 L149,53 L149,55 L154,57 L158,62 L159,64 L160,78 L157,84 L153,88 L146,90 L136,90 L126,87 L118,84 L104,79 L91,74 L83,71 L71,67 L63,64 L57,62 L57,60 L49,59 L43,57 L43,55 L36,54 L29,52 L29,50 L18,48 L16,47 L16,45 L8,44 L2,42 L2,40 L-6,39 L-9,37 L-9,35 L-13,33 L-14,29 L-16,29 L-16,12 L-14,12 L-13,8 L-8,3 Z " fill="#68747D" transform="translate(16,994)"/>
<path d="M0,0 L3,1 L2,5 L25,28 L25,30 L14,38 L13,40 L11,40 L9,44 L8,48 L6,48 L5,58 L5,71 L11,86 L19,93 L29,98 L35,99 L55,99 L80,124 L79,129 L70,133 L60,136 L55,137 L26,137 L10,133 L1,128 L1,126 L-3,125 L-7,123 L-12,118 L-14,114 L-17,113 L-24,103 L-29,93 L-32,86 L-34,75 L-34,53 L-31,38 L-29,38 L-28,32 L-25,26 L-21,19 L-17,15 L-16,13 L-14,13 L-12,9 L-4,3 L-2,3 L-2,1 Z " fill="#68747D" transform="translate(981,1143)"/>
<path d="M0,0 L5,1 L11,9 L15,17 L20,32 L24,52 L26,62 L28,76 L32,120 L36,146 L41,166 L44,176 L51,191 L53,196 L55,196 L58,201 L62,205 L65,206 L66,208 L72,211 L77,212 L85,212 L95,208 L101,203 L106,200 L112,220 L116,228 L121,238 L123,244 L125,244 L128,249 L128,251 L130,251 L133,256 L144,268 L149,273 L150,276 L154,278 L161,284 L164,285 L168,289 L172,279 L173,283 L171,290 L169,296 L164,295 L158,292 L152,290 L152,288 L140,285 L132,281 L125,277 L117,274 L110,266 L103,251 L101,244 L88,240 L71,232 L66,228 L58,222 L58,220 L54,218 L53,215 L50,214 L42,203 L34,187 L28,169 L24,142 L22,106 L22,94 L19,69 L18,59 L15,46 L9,23 L1,3 Z " fill="#21679B" transform="translate(194,294)"/>
<path d="M0,0 L12,0 L26,5 L34,13 L39,20 L41,28 L41,45 L38,54 L31,63 L20,71 L14,73 L0,73 L-9,71 L-20,64 L-25,59 L-31,44 L-31,31 L-29,21 L-27,21 L-26,16 L-24,13 L-22,13 L-21,10 L-12,3 L-7,1 Z " fill="#293036" transform="translate(1016,1170)"/>
<path d="M0,0 L22,0 L39,3 L45,6 L53,9 L62,15 L73,24 L84,35 L93,49 L96,58 L96,61 L98,61 L100,68 L101,76 L101,99 L94,93 L4,3 Z " fill="#C8D2DD" transform="translate(626,1024)"/>
<path d="M0,0 L13,0 L17,1 L17,3 L22,4 L29,10 L32,14 L34,22 L34,33 L30,42 L23,50 L15,54 L11,55 L2,55 L-6,53 L-7,51 L-12,48 L-17,42 L-21,33 L-21,20 L-15,9 L-9,4 Z " fill="#2D3336" transform="translate(337,1161)"/>
<path d="M0,0 L3,0 L8,8 L12,11 L15,12 L16,14 L14,50 L13,59 L11,60 L3,60 L-9,57 L-26,55 L-27,53 L-26,28 L-25,13 L-23,13 L-23,1 L-5,1 Z " fill="#66727B" transform="translate(900,218)"/>
<path d="M0,0 L9,1 L9,3 L15,4 L19,7 L24,10 L28,15 L33,20 L39,31 L43,44 L43,68 L40,82 L37,84 L36,81 L36,61 L33,47 L27,36 L23,31 L14,24 L8,21 L-1,18 L-3,17 L-1,1 Z " fill="#22669B" transform="translate(910,394)"/>
<path d="M0,0 L9,0 L13,1 L13,3 L18,5 L23,11 L24,13 L24,23 L18,32 L11,36 L-2,36 L-7,33 L-12,26 L-13,23 L-13,15 L-10,7 L-3,1 Z " fill="#2D3335" transform="translate(663,1115)"/>
<path d="M0,0 L10,0 L19,6 L22,11 L23,15 L23,23 L20,29 L16,34 L11,36 L-2,36 L-8,32 L-13,24 L-14,22 L-14,14 L-11,8 L-3,1 Z " fill="#2B3139" transform="translate(650,1065)"/>
<path d="M0,0 L11,0 L17,4 L19,8 L21,8 L23,12 L23,23 L19,29 L15,33 L13,33 L13,35 L10,36 L-1,36 L-6,33 L-12,26 L-13,24 L-13,14 L-11,7 L-4,1 Z " fill="#2B3137" transform="translate(600,1079)"/>
<path d="M0,0 L10,0 L19,6 L22,12 L22,23 L18,30 L10,36 L-2,36 L-8,32 L-12,25 L-12,23 L-14,23 L-14,13 L-11,7 L-4,1 Z " fill="#2B3138" transform="translate(614,1129)"/>
<path d="M0,0 L10,0 L15,2 L21,10 L22,14 L22,24 L19,29 L17,29 L15,33 L13,35 L9,36 L-1,36 L-4,35 L-4,33 L-8,31 L-13,25 L-13,11 L-10,5 L-5,1 Z " fill="#65737C" transform="translate(1017,1189)"/>
<path d="M0,0 L3,1 L-4,8 L-6,8 L-8,12 L-23,23 L-40,32 L-55,37 L-63,39 L-65,38 L-64,23 L-60,7 L-59,7 L-60,18 L-61,23 L-39,17 L-21,10 L-13,8 L-13,6 L-11,6 L-11,4 Z " fill="#286699" transform="translate(931,604)"/>
<path d="M0,0 L18,0 L41,6 L45,12 L44,15 L40,18 L29,18 L11,16 L-1,10 L-4,7 L-4,2 Z " fill="#21689B" transform="translate(178,246)"/>
<path d="M0,0 L70,1 L68,4 L53,9 L41,9 L17,5 L2,2 Z " fill="#3B86BD" transform="translate(612,698)"/>
<path d="M0,0 L12,3 L27,7 L33,9 L31,11 L21,11 L-6,7 L-10,5 L-6,3 Z " fill="#3982B9" transform="translate(412,657)"/>
<path d="M0,0 L3,1 L2,3 L8,3 L13,8 L24,10 L25,12 L7,10 L0,8 L-21,5 L-21,4 L-9,3 Z " fill="#23608D" transform="translate(674,703)"/>
<path d="M0,0 L26,0 L41,2 L41,3 L-7,3 L-27,6 L-33,8 L-40,9 L-39,7 L-30,4 L-20,2 Z " fill="#515E65" transform="translate(625,950)"/>
<path d="M0,0 L70,1 L68,4 L65,4 L65,2 L24,3 L23,5 L27,6 L17,5 L2,2 Z " fill="#3982B8" transform="translate(612,698)"/>
<path d="M0,0 L1,0 L1,8 L-2,24 L-3,31 L-4,32 L-5,43 L-8,58 L-11,72 L-12,72 L-12,63 L-11,56 L-9,56 L-9,48 L-6,29 L-5,28 L-3,13 L-1,7 Z " fill="#AB2E3F" transform="translate(854,497)"/>
<path d="M0,0 L2,0 L2,2 L0,2 L7,10 L15,18 L16,23 L9,19 L-3,19 L-3,17 L7,16 L-3,6 L-2,1 Z " fill="#BAC4CD" transform="translate(615,1111)"/>
<path d="M0,0 L9,2 L10,5 L-6,5 L-24,4 L-26,2 L-10,3 L-10,1 L-3,1 L-3,3 L0,3 Z " fill="#3782BA" transform="translate(620,655)"/>
<path d="M0,0 L1,4 L-3,34 L-6,46 L-8,59 L-9,59 L-8,43 L-4,25 L-1,2 Z " fill="#982E3D" transform="translate(934,25)"/>
<path d="M0,0 L5,0 L6,5 L18,6 L18,7 L0,8 L-3,9 L-3,3 L-4,1 Z " fill="#3883BF" transform="translate(178,239)"/>
<path d="M0,0 L2,1 L-4,5 L-10,11 L-11,25 L-9,26 L-12,26 L-13,24 L-13,14 L-11,7 L-4,1 Z " fill="#4C5257" transform="translate(600,1079)"/>
<path d="M0,0 L2,1 L-5,10 L-10,13 L-14,19 L-19,24 L-22,24 L-20,20 L-13,14 L-6,6 L-1,1 Z " fill="#B02E3F" transform="translate(434,961)"/>
<path d="M0,0 L1,0 L0,17 L-3,29 L-5,42 L-7,45 L-5,27 L-4,20 L-2,13 Z " fill="#30536D" transform="translate(812,436)"/>
<path d="M0,0 L1,3 L-4,8 L-9,13 L-14,18 L-16,20 L-19,20 L-17,16 L-10,10 L-3,2 Z " fill="#B52D40" transform="translate(411,985)"/>
<path d="M0,0 L20,2 L28,3 L28,5 L37,6 L37,7 L29,7 L23,6 L23,4 L8,3 L0,1 Z " fill="#8F2E3D" transform="translate(460,756)"/>
<path d="M0,0 L2,0 L0,4 L-13,17 L-17,19 L-15,15 L-11,10 L-3,3 Z " fill="#B4BFC7" transform="translate(580,1042)"/>
<path d="M0,0 L2,0 L2,10 L0,17 L0,23 L-3,27 L-2,12 Z " fill="#AC2D3F" transform="translate(858,469)"/>
<path d="M0,0 L3,1 L-4,8 L-6,8 L-8,12 L-10,12 L-8,7 L-5,7 L-5,5 L-9,7 L-13,6 L-11,6 L-11,4 Z " fill="#286FA7" transform="translate(931,604)"/>
<path d="M0,0 L48,0 L46,3 L43,3 L43,1 L0,1 Z " fill="#2E76AC" transform="translate(634,699)"/>
<path d="M0,0 L9,0 L13,2 L1,2 L-7,9 L-11,12 L-10,7 L-3,1 Z " fill="#585F64" transform="translate(663,1115)"/>
<path d="M0,0 L2,1 L2,3 L5,4 L-4,9 L-11,10 L-9,5 L-4,5 Z " fill="#1D5D94" transform="translate(674,207)"/>
<path d="M0,0 L2,0 L7,10 L10,18 L13,22 L9,20 L3,10 L0,3 Z " fill="#2B6DAD" transform="translate(298,544)"/>
<path d="M0,0 L1,4 L-2,23 L-4,31 L-5,31 L-5,22 L-3,15 L-1,2 Z " fill="#732E3A" transform="translate(919,110)"/>
<path d="M0,0 L8,0 L23,4 L23,5 L14,5 L2,2 Z " fill="#3175A7" transform="translate(445,668)"/>
<path d="M0,0 L1,0 L1,8 L-2,24 L-4,24 L-2,6 L0,6 Z " fill="#A92E3F" transform="translate(924,85)"/>
<path d="M0,0 L1,4 L0,6 L-2,6 L-3,11 L-6,19 L-9,23 L-11,23 L-9,18 L-4,8 L-3,5 L-1,5 Z " fill="#9AA7B0" transform="translate(722,1146)"/>
<path d="M0,0 L8,0 L9,1 L31,4 L33,6 L15,4 L7,3 L0,1 Z " fill="#732E3A" transform="translate(497,763)"/>
<path d="M0,0 L3,3 L1,6 L-1,6 L-1,11 L-3,11 L-3,18 L-5,22 L-4,8 Z " fill="#6D6C9A" transform="translate(877,585)"/>
<path d="M0,0 L1,0 L2,15 L7,30 L6,32 L1,22 L0,16 Z " fill="#8D99A3" transform="translate(288,1182)"/>
<path d="M0,0 L0,3 L-2,5 L-3,10 L-3,21 L-1,21 L0,26 L-4,23 L-5,20 L-5,7 L-2,2 Z " fill="#A22E3E" transform="translate(806,955)"/>
<path d="M0,0 L1,4 L-2,13 L-3,29 L-4,29 L-4,10 L-3,4 L-1,4 Z " fill="#356D97" transform="translate(488,551)"/>
<path d="M0,0 L2,0 L0,4 L-4,6 L-7,17 L-9,20 L-8,12 L-5,4 Z " fill="#A22F3E" transform="translate(898,280)"/>
<path d="M0,0 L2,1 L3,12 L1,18 L0,18 L1,8 L-1,8 Z " fill="#236288" transform="translate(803,307)"/>
<path d="M0,0 L3,1 L7,3 L16,5 L12,6 L-10,2 L-10,1 Z " fill="#33658B" transform="translate(443,667)"/>
<path d="M0,0 L5,0 L4,2 L-7,4 L-13,6 L-20,7 L-19,5 L-10,2 Z " fill="#465259" transform="translate(605,952)"/>
<path d="M0,0 L1,4 L-1,11 L-3,17 L-8,16 L-4,15 L-2,5 Z " fill="#2B5473" transform="translate(366,573)"/>
<path d="M0,0 L1,4 L-1,19 L-3,21 L-3,8 L-1,8 L-1,2 Z " fill="#9E5075" transform="translate(913,370)"/>
<path d="M0,0 L4,2 L6,8 L1,12 L-7,12 L-7,11 L1,9 L2,3 Z " fill="#2470A6" transform="translate(217,252)"/>
<path d="M0,0 L1,0 L1,6 L-2,11 L-4,11 L-4,16 L-7,17 L-5,10 Z " fill="#9F2E3E" transform="translate(813,707)"/>
<path d="M0,0 L9,4 L9,10 L2,4 Z " fill="#2266A2" transform="translate(741,264)"/>
<path d="M0,0 L1,0 L2,17 L-1,14 L-1,3 Z " fill="#B33142" transform="translate(903,204)"/>
<path d="M0,0 L1,2 L-1,16 L-3,14 L-3,6 Z " fill="#747C82" transform="translate(639,1073)"/>
<path d="M0,0 L8,1 L9,2 L17,3 L17,4 L7,4 L-1,2 Z " fill="#795C68" transform="translate(145,1080)"/>
<path d="M0,0 L2,1 L0,5 L-4,9 L-10,10 L-8,9 L-8,7 L-4,6 L-3,3 Z " fill="#855869" transform="translate(173,1073)"/>
<path d="M0,0 L0,3 L-7,11 L-10,10 Z " fill="#57646C" transform="translate(523,995)"/>
<path d="M0,0 L5,1 L2,9 L0,8 Z " fill="#D03246" transform="translate(175,1059)"/>
<path d="M0,0 L4,1 L-2,6 L-3,9 L-5,9 L-4,3 Z " fill="#2D485B" transform="translate(392,529)"/>
<path d="M0,0 L0,3 L-9,5 L-10,3 L-9,1 L-2,1 Z " fill="#245F93" transform="translate(483,216)"/>
<path d="M0,0 L5,1 L6,4 L-10,4 L-10,3 L2,3 L2,1 Z " fill="#3781B8" transform="translate(624,656)"/>
<path d="M0,0 L3,1 L-1,10 L-3,10 L-3,4 Z " fill="#3A80AF" transform="translate(971,542)"/>
<path d="M0,0 L1,0 L2,15 L-2,10 Z " fill="#276FA4" transform="translate(222,383)"/>
<path d="M0,0 L1,4 L-4,9 L-9,10 L-4,5 Z " fill="#A8B2B9" transform="translate(366,1203)"/>
<path d="M0,0 L3,0 L4,4 L2,7 L-2,7 Z " fill="#D22B3E" transform="translate(170,968)"/>
<path d="M0,0 L1,2 L-1,7 L-4,11 L-7,11 L-6,8 L-4,8 L-2,3 Z " fill="#347DA9" transform="translate(353,315)"/>
<path d="M0,0 L2,1 L-6,10 L-7,7 Z " fill="#BBC6CE" transform="translate(309,1145)"/>
<path d="M0,0 L4,1 L3,4 L-1,7 L-3,7 L-1,1 Z " fill="#442C32" transform="translate(838,742)"/>
<path d="M0,0 L1,0 L0,11 L-3,17 L-4,13 L-2,10 Z " fill="#B82F40" transform="translate(820,685)"/>
<path d="M0,0 L2,0 L0,4 L-5,7 L-8,6 L-6,6 L-6,4 Z " fill="#2E70A4" transform="translate(771,656)"/>
<path d="M0,0 L2,0 L2,5 L-2,9 L-4,8 Z " fill="#3D80BB" transform="translate(935,519)"/>
<path d="M0,0 L2,1 L-4,9 L-7,8 Z " fill="#AC2D3F" transform="translate(389,1006)"/>
<path d="M0,0 L3,1 L0,4 L-3,5 L-5,4 L-4,1 Z " fill="#215F8C" transform="translate(899,628)"/>
<path d="M0,0 L1,0 L2,8 L-3,9 Z " fill="#3F7EB1" transform="translate(990,445)"/>
<path d="M0,0 L1,2 L-2,8 L-6,9 L-4,5 L-3,3 L-1,3 Z " fill="#3C454B" transform="translate(995,1180)"/>
<path d="M0,0 L2,1 L-3,8 L-6,9 L-4,4 Z " fill="#5C6368" transform="translate(326,1166)"/>
<path d="M0,0 L2,0 L1,4 L-2,8 L-4,8 L-2,3 Z " fill="#83919B" transform="translate(715,1161)"/>
<path d="M0,0 L8,0 L8,2 L12,3 L5,3 L0,1 Z " fill="#3981BC" transform="translate(445,668)"/>
<path d="M0,0 L4,4 L5,7 L1,6 L-2,1 Z " fill="#1C61A3" transform="translate(561,187)"/>
<path d="M0,0 L0,3 L-5,9 L-8,8 Z " fill="#632F38" transform="translate(408,1039)"/>
<path d="M0,0 L3,1 L5,6 L6,10 L4,10 Z " fill="#2B76A4" transform="translate(227,477)"/>
<path d="M0,0 L2,2 L1,6 L-3,5 L-3,1 Z " fill="#1F5B9C" transform="translate(217,367)"/>
<path d="M0,0 L5,1 L14,3 L10,4 L3,3 Z " fill="#327BB4" transform="translate(513,316)"/>
<path d="M0,0 L5,1 L8,3 L-5,2 L-5,1 Z " fill="#3982BA" transform="translate(639,304)"/>
<path d="M0,0 L5,1 L7,5 L2,5 Z " fill="#296DAC" transform="translate(194,294)"/>
<path d="M0,0 L1,2 L-3,7 L-7,6 Z " fill="#58666F" transform="translate(1049,1230)"/>
<path d="M0,0 L2,3 L1,7 L-4,3 Z " fill="#236CA3" transform="translate(299,494)"/>
<path d="M0,0 L4,0 L3,4 L-1,4 Z " fill="#DE374A" transform="translate(370,1023)"/>
<path d="M0,0 L0,3 L-5,8 L-8,7 Z " fill="#1E2827" transform="translate(383,821)"/>
<path d="M0,0 L3,1 L4,4 L-6,3 L-6,2 Z " fill="#DB2D51" transform="translate(395,743)"/>
<path d="M0,0 L1,4 L-2,8 L-4,8 L-2,3 Z " fill="#A72D3F" transform="translate(805,724)"/>
<path d="M0,0 L1,3 L-3,5 L-6,5 L-6,3 L-4,3 L-4,1 Z " fill="#2381B0" transform="translate(758,664)"/>
<path d="M0,0 L4,2 L6,7 L4,8 L0,2 Z " fill="#3164A4" transform="translate(936,427)"/>
<path d="M0,0 L2,0 L4,5 L-1,5 L-2,2 L0,2 Z " fill="#3F7AB5" transform="translate(798,336)"/>
<path d="M0,0 L1,4 L-1,4 L-1,8 L-4,8 L-2,3 Z " fill="#ADB8C0" transform="translate(299,1155)"/>
<path d="M0,0 L3,1 L2,3 L6,4 L-4,3 Z " fill="#3778A6" transform="translate(633,700)"/>
<path d="M0,0 L9,0 L8,3 L0,1 Z " fill="#3277AD" transform="translate(612,698)"/>
<path d="M0,0 L2,1 L-2,6 L-5,7 L-3,3 Z " fill="#2E475A" transform="translate(496,540)"/>
<path d="M0,0 L2,0 L0,4 L-4,6 L-2,1 Z " fill="#BC2D40" transform="translate(898,280)"/>
<path d="M0,0 L4,1 L-2,4 L-6,3 Z " fill="#255C83" transform="translate(432,223)"/>
<path d="M0,0 L3,1 L1,6 L-2,5 Z " fill="#D22841" transform="translate(950,146)"/>
<path d="M0,0 L2,1 L0,10 L-2,6 L-1,1 Z " fill="#D3243C" transform="translate(961,91)"/>
</svg>
